PathFileType	4	(X/Y/Z)	Run_300 02
DataRate	CameraRate	NumFrames	NumMarkers	Units	OrigDataRate	OrigDataStartFrame	OrigNumFrames
120	120	4	42	mm	120	60	128
Frame#	Time	LASI			RASI			LPSI			RPSI			RTH1			RTH2			RTH3			LTH1			LTH2			LTH3			RTB1			RTB2			LTB1			LTB2			LTB3			RCAL			RTOE			RMT5			LCAL			LTOE			LMT5			LACR			RACR			CLAV			C7			RUA1			RUA2			RUA3			RLEL			RMEL			LUA1			LUA2			LUA3			LLEL			LMEL			RFAsuperior			RFAradius			RFAulna			LFAsuperior			LFAradius			LFAulna			RTB3			
		X1	Y1	Z1	X2	Y2	Z2	X3	Y3	Z3	X4	Y4	Z4	X5	Y5	Z5	X6	Y6	Z6	X7	Y7	Z7	X8	Y8	Z8	X9	Y9	Z9	X10	Y10	Z10	X11	Y11	Z11	X12	Y12	Z12	X13	Y13	Z13	X14	Y14	Z14	X15	Y15	Z15	X16	Y16	Z16	X17	Y17	Z17	X18	Y18	Z18	X19	Y19	Z19	X20	Y20	Z20	X21	Y21	Z21	X22	Y22	Z22	X23	Y23	Z23	X24	Y24	Z24	X25	Y25	Z25	X26	Y26	Z26	X27	Y27	Z27	X28	Y28	Z28	X29	Y29	Z29	X30	Y30	Z30	X31	Y31	Z31	X32	Y32	Z32	X33	Y33	Z33	X34	Y34	Z34	X35	Y35	Z35	X36	Y36	Z36	X37	Y37	Z37	X38	Y38	Z38	X39	Y39	Z39	X40	Y40	Z40	X41	Y41	Z41	X42	Y42	Z42	

34	1.408333	893.700505	1093.702299	-444.239126	878.748109	1085.051914	-181.64755	712.033498	1135.829176	-368.239155	707.655591	1130.717402	-285.155366	773.343258	921.9536409999999	-141.408167	787.458811	806.058458	-157.683519	679.508811	720.129534	-189.740859	899.435245	901.431242	-493.065294	1013.421187	827.326863	-475.072444	1002.538245	698.558887	-454.301025	618.452063	419.428975	-277.289555	563.592033	371.303647	-212.92518	1072.326326	480.307623	-390.419481	1017.566261	405.883049	-444.427947	998.402673	291.484288	-379.686956	346.933425	211.576943	-302.660729	524.980471	63.137587	-329.300262	452.905846	69.28124099999999	-239.592905	853.597312	190.937069	-362.853213	1073.921268	111.675085	-359.490081	995.891118	100.900872	-440.09159	889.10523	1559.988068	-492.479206	931.347728	1568.684084	-158.694329	956.425372	1507.105708	-297.314082	838.16668	1597.273289	-309.78362	931.318118	1471.223866	-77.04743000000001	944.489496	1382.02297	-79.26257099999999	883.725792	1370.236015	-28.064386	899.815939	1238.362328	25.923439	851.817674	1214.078474	-41.783072	831.587479	1496.166614	-564.395054	814.032473	1427.209358	-566.766086	720.685624	1455.500987	-543.864426	638.529123	1319.323514	-609.484365	606.7516869999999	1322.043924	-530.36215	994.76033	1266.115204	-22.714553	1087.495982	1314.001248	-165.264548	1123.907404	1265.055454	-124.377632	725.95062	1276.417868	-595.705909	868.987924	1228.014071	-496.369128	845.627798	1165.61051	-524.394637	521.622745	282.085513	-285.103297	
35	1.416667	895.065076	1099.754069	-444.701744	882.189779	1090.127852	-181.894518	714.420567	1141.103555	-367.427483	710.534645	1135.56323	-284.208942	773.416961	926.2218810000001	-141.184275	784.202917	810.390879	-157.983536	674.007379	727.520296	-189.72093	898.834015	904.9972739999999	-492.675063	1010.884254	828.627797	-475.563826	998.20165	699.636919	-453.632772	606.670793	427.452076	-276.892464	550.9017689999999	380.378211	-212.333431	1077.221692	480.927623	-390.079247	1029.305729	402.154182	-444.473542	1018.243097	286.976464	-379.101621	337.430327	225.441273	-301.926908	503.285457	63.866101	-328.563794	431.630127	74.71222400000001	-239.457653	881.484372	174.274164	-364.673797	1107.893923	115.500853	-354.391991	1033.425442	95.80309	-435.841252	889.242492	1564.683513	-492.917181	933.180801	1573.686999	-160.45587	957.130982	1511.71209	-298.290447	838.908869	1601.507589	-310.268612	933.523873	1477.198309	-78.19116200000001	946.3804709999999	1388.182773	-79.85067600000001	885.190708	1376.790841	-28.889512	902.027951	1244.598272	25.443253	852.813547	1220.295171	-41.54321	830.838937	1502.056036	-564.4454019999999	812.266873	1433.462373	-566.79871	719.740825	1463.228949	-541.635896	634.320246	1328.060717	-606.881563	604.146571	1330.636563	-527.1060179999999	995.025794	1274.576967	-25.338381	1082.977648	1326.259952	-169.656834	1121.720775	1277.58346	-129.810287	721.54348	1284.735275	-594.50369	866.326532	1235.231558	-497.670776	842.2782130000001	1173.166689	-525.491162	509.257738	290.039294	-284.077273	
36	1.425	896.276323	1104.645714	-444.813184	885.5298770000001	1094.726369	-182.180571	716.719345	1145.570601	-366.665311	713.322812	1139.934224	-283.332014	773.695195	930.4321189999999	-140.784382	781.606458	814.4720569999999	-157.919274	669.672332	734.5227169999999	-189.683186	897.766984	907.080567	-492.099798	1007.719413	828.211258	-476.025641	993.4692230000001	699.35213	-453.610968	596.604079	435.033847	-276.595043	539.87668	389.123017	-211.99206	1080.879855	480.96124	-389.227969	1040.384597	398.319311	-444.179857	1036.785671	283.058748	-378.168661	329.354386	239.704217	-301.160304	482.605524	66.020764	-327.669558	411.161309	81.43082	-239.366828	909.074126	159.100071	-366.467481	1139.311483	120.997479	-348.9248	1069.545874	93.431121	-431.938242	889.366901	1568.753616	-493.089315	934.832419	1578.014601	-162.062317	957.8123849999999	1515.641193	-299.224521	839.647564	1605.165538	-310.814179	935.312631	1482.469366	-79.185429	947.873148	1393.596407	-80.27134	886.582318	1382.740052	-29.325109	903.696848	1250.122703	25.099335	853.230833	1225.964372	-41.119582	830.173481	1507.536901	-564.706604	810.747789	1439.105976	-566.996303	719.094687	1469.996823	-539.787603	630.81485	1335.580386	-604.579611	602.091532	1338.014173	-524.322497	994.758417	1281.937343	-27.708658	1078.069251	1337.016205	-173.540122	1118.9158	1288.667463	-134.674358	717.845675	1292.056996	-593.471986	864.271076	1241.708826	-498.90992	839.624389	1179.878058	-526.5314049999999	498.147438	297.872463	-283.246826	
37	1.433333	897.299649	1108.175221	-444.578491	888.714738	1098.567161	-182.582404	718.819171	1149.046891	-365.967312	715.950712	1143.659178	-282.521478	774.283251	934.383649	-140.319623	779.895009	818.068054	-157.657576	666.65197	740.7549770000001	-189.767241	896.353713	908.008914	-491.456786	1004.376091	826.474845	-476.404228	988.559356	697.757055	-454.041733	588.229572	441.784944	-276.420893	530.442303	397.226499	-211.925115	1083.323236	480.383927	-388.221095	1050.320033	394.566473	-443.775254	1053.71216	279.777782	-377.042917	321.879907	253.978871	-300.55475	463.188554	70.017675	-326.563156	391.709071	89.53859799999999	-239.312605	935.849564	145.672185	-367.934797	1167.828316	127.94966	-343.37444	1103.412346	93.686509	-428.481348	889.412517	1572.135828	-493.111196	936.305796	1581.622761	-163.492831	958.4187910000001	1518.869239	-300.168156	840.357243	1608.169352	-311.416971	936.707578	1486.992625	-80.047177	949.072559	1398.13258	-80.640467	888.068261	1387.89269	-29.42795	904.824197	1254.878277	24.86648	853.078876	1231.035594	-40.529847	829.516201	1512.499743	-565.110067	809.442684	1444.089441	-567.333706	718.616676	1475.660292	-538.299198	628.03923	1341.712813	-602.690896	600.6422219999999	1344.022746	-522.136395	994.0731479999999	1288.111387	-29.792871	1072.925812	1346.138707	-176.939898	1115.51961	1298.007506	-139.179724	714.918265	1298.263249	-592.669608	862.848346	1247.395134	-500.150534	837.724616	1185.663908	-527.54275	487.939102	305.523717	-282.606006	
